<svg width="10" height="9" viewBox="0 0 10 9" fill="none" xmlns="http://www.w3.org/2000/svg">
<path d="M5.00314 0.422713C5.06479 0.232988 5.3332 0.232988 5.39485 0.422714L6.26238 3.09271C6.28995 3.17756 6.36902 3.235 6.45823 3.235H9.26563C9.46512 3.235 9.54806 3.49028 9.38667 3.60753L7.11544 5.25768C7.04326 5.31012 7.01306 5.40307 7.04063 5.48792L7.90817 8.15791C7.96981 8.34764 7.75266 8.50541 7.59127 8.38815L5.32004 6.738C5.24786 6.68556 5.15013 6.68556 5.07795 6.738L2.80672 8.38815C2.64533 8.50541 2.42818 8.34764 2.48983 8.15791L3.35736 5.48792C3.38493 5.40307 3.35473 5.31012 3.28255 5.25768L1.01132 3.60753C0.849928 3.49028 0.932872 3.235 1.13236 3.235H3.93976C4.02897 3.235 4.10804 3.17756 4.13561 3.09271L5.00314 0.422713Z" fill="#F1CC4A"/>
</svg>
